<?xml version="1.0" encoding="UTF-8" standalone="no"?>
<!-- Uploaded to: SVG Repo, www.svgrepo.com, Generator: SVG Repo Mixer Tools -->

<svg
   height="800px"
   width="800px"
   version="1.1"
   id="Capa_1"
   viewBox="0 0 24.393 24.393"
   xml:space="preserve"
   sodipodi:docname="hibernate.svg"
   inkscape:version="1.4 (e7c3feb100, 2024-10-09)"
   xmlns:inkscape="http://www.inkscape.org/namespaces/inkscape"
   xmlns:sodipodi="http://sodipodi.sourceforge.net/DTD/sodipodi-0.dtd"
   xmlns="http://www.w3.org/2000/svg"
   xmlns:svg="http://www.w3.org/2000/svg"><defs
   id="defs1" /><sodipodi:namedview
   id="namedview1"
   pagecolor="#ffffff"
   bordercolor="#000000"
   borderopacity="0.25"
   inkscape:showpageshadow="2"
   inkscape:pageopacity="0.0"
   inkscape:pagecheckerboard="0"
   inkscape:deskcolor="#d1d1d1"
   inkscape:zoom="1.18375"
   inkscape:cx="309.18691"
   inkscape:cy="430.41183"
   inkscape:window-width="1880"
   inkscape:window-height="1104"
   inkscape:window-x="0"
   inkscape:window-y="0"
   inkscape:window-maximized="1"
   inkscape:current-layer="Capa_1" />
<g
   id="g1"
   style="fill:#ffffff">
	<path
   style="fill:#ffffff"
   d="M12.196,0C5.46,0,0,5.46,0,12.196s5.46,12.197,12.196,12.197s12.197-5.461,12.197-12.197   S18.932,0,12.196,0z M12.196,21.782c-5.295,0-9.586-4.291-9.586-9.586S6.901,2.61,12.196,2.61s9.586,4.291,9.586,9.586   S17.491,21.782,12.196,21.782z M14.1,7.436v9.519c0,1.051-0.852,1.904-1.904,1.904s-1.904-0.852-1.904-1.904V7.436   c0-1.051,0.852-1.904,1.904-1.904S14.1,6.385,14.1,7.436z"
   id="path1" />
</g>
</svg>
