<?xml version="1.0" encoding="UTF-8" standalone="no"?>
<!-- Uploaded to: SVG Repo, www.svgrepo.com, Generator: SVG Repo Mixer Tools -->

<svg
   width="800px"
   height="800px"
   viewBox="0 0 24 24"
   fill="none"
   version="1.1"
   id="svg2"
   sodipodi:docname="logout.svg"
   inkscape:version="1.4 (e7c3feb100, 2024-10-09)"
   xmlns:inkscape="http://www.inkscape.org/namespaces/inkscape"
   xmlns:sodipodi="http://sodipodi.sourceforge.net/DTD/sodipodi-0.dtd"
   xmlns="http://www.w3.org/2000/svg"
   xmlns:svg="http://www.w3.org/2000/svg">
  <defs
     id="defs2" />
  <sodipodi:namedview
     id="namedview2"
     pagecolor="#ffffff"
     bordercolor="#000000"
     borderopacity="0.25"
     inkscape:showpageshadow="2"
     inkscape:pageopacity="0.0"
     inkscape:pagecheckerboard="0"
     inkscape:deskcolor="#d1d1d1"
     showgrid="false"
     inkscape:zoom="1.05375"
     inkscape:cx="399.5255"
     inkscape:cy="400"
     inkscape:window-width="1872"
     inkscape:window-height="1096"
     inkscape:window-x="0"
     inkscape:window-y="0"
     inkscape:window-maximized="1"
     inkscape:current-layer="svg2" />
  <path
     d="M17.2929 14.2929C16.9024 14.6834 16.9024 15.3166 17.2929 15.7071C17.6834 16.0976 18.3166 16.0976 18.7071 15.7071L21.6201 12.7941C21.6351 12.7791 21.6497 12.7637 21.6637 12.748C21.87 12.5648 22 12.2976 22 12C22 11.7024 21.87 11.4352 21.6637 11.252C21.6497 11.2363 21.6351 11.2209 21.6201 11.2059L18.7071 8.29289C18.3166 7.90237 17.6834 7.90237 17.2929 8.29289C16.9024 8.68342 16.9024 9.31658 17.2929 9.70711L18.5858 11H13C12.4477 11 12 11.4477 12 12C12 12.5523 12.4477 13 13 13H18.5858L17.2929 14.2929Z"
     fill="#323232"
     id="path1"
     style="fill:#ffffff" />
  <path
     d="M5 2C3.34315 2 2 3.34315 2 5V19C2 20.6569 3.34315 22 5 22H14.5C15.8807 22 17 20.8807 17 19.5V16.7326C16.8519 16.647 16.7125 16.5409 16.5858 16.4142C15.9314 15.7598 15.8253 14.7649 16.2674 14H13C11.8954 14 11 13.1046 11 12C11 10.8954 11.8954 10 13 10H16.2674C15.8253 9.23514 15.9314 8.24015 16.5858 7.58579C16.7125 7.4591 16.8519 7.35296 17 7.26738V4.5C17 3.11929 15.8807 2 14.5 2H5Z"
     fill="#323232"
     id="path2"
     style="fill:#ffffff" />
</svg>
