<svg clip-rule="evenodd" fill-rule="evenodd" stroke-linejoin="round" stroke-miterlimit="2" viewBox="0 0 48 48" xmlns="http://www.w3.org/2000/svg">
 <linearGradient id="a" x2="1" gradientTransform="matrix(0 -31.2259 28.4027 0 25.0182 39.5416)" gradientUnits="userSpaceOnUse">
  <stop stop-color="#f69310" offset="0"/>
  <stop stop-color="#f3ca71" offset="1"/>
 </linearGradient>
 <path d="m45.841 11.91c0-2.072-1.679-3.75-3.75-3.75h-36.183c-2.07 0-3.75 1.678-3.75 3.75v24.185c0 2.07 1.68 3.75 3.75 3.75h36.183c2.071 0 3.75-1.68 3.75-3.75z" fill="#e49f34"/>
 <path d="m45.841 15.489c0-.995-.395-1.948-1.098-2.652-.704-.703-1.657-1.098-2.652-1.098h-19.185c-.924 0-1.815-.341-2.502-.958-.576-.516-1.285-1.151-1.861-1.668-.688-.616-1.579-.957-2.503-.957h-10.131c-.995 0-1.948.395-2.652 1.098-.703.703-1.098 1.657-1.098 2.652v24.189c0 2.07 1.679 3.75 3.75 3.75h36.182c2.071 0 3.75-1.68 3.75-3.75z" fill="url(#a)"/>
 <path d="m18.942 31.734h1.513v1.686h-1.513v1.61h-1.686v-1.61h-1.512v-1.686h1.512v-1.61h1.686zm7.587-15.365 4.215 4.214v12.837h-1.686v-11.994h-3.372v-3.372h-6.744v5.966l-1.686.032v-6.419c0-.701.564-1.264 1.264-1.264zm1.707 17.051h-1.686v-1.686h1.686zm-5.22 0h-1.686v-1.686h1.686zm2.67 0h-1.686v-1.686h1.686zm-6.744-4.182h-1.686v-1.686h1.686zm0-2.658h-1.686v-1.686h1.686z" fill="#aa6c0c"/>
</svg>
