<svg clip-rule="evenodd" fill-rule="evenodd" stroke-linejoin="round" stroke-miterlimit="2" viewBox="0 0 48 48" xmlns="http://www.w3.org/2000/svg">
 <linearGradient id="a" x2="1" gradientTransform="matrix(0 -31.2259 28.4027 0 25.0182 39.5416)" gradientUnits="userSpaceOnUse">
  <stop stop-color="#f69310" offset="0"/>
  <stop stop-color="#f3ca71" offset="1"/>
 </linearGradient>
 <path d="m45.841 11.91c0-2.072-1.679-3.75-3.75-3.75h-36.183c-2.07 0-3.75 1.678-3.75 3.75v24.185c0 2.07 1.68 3.75 3.75 3.75h36.183c2.071 0 3.75-1.68 3.75-3.75z" fill="#e49f34"/>
 <path d="m45.841 15.489c0-.995-.395-1.948-1.098-2.652-.704-.703-1.657-1.098-2.652-1.098h-19.185c-.924 0-1.815-.341-2.502-.958-.576-.516-1.285-1.151-1.861-1.668-.688-.616-1.579-.957-2.503-.957h-10.131c-.995 0-1.948.395-2.652 1.098-.703.703-1.098 1.657-1.098 2.652v24.189c0 2.07 1.679 3.75 3.75 3.75h36.182c2.071 0 3.75-1.68 3.75-3.75z" fill="url(#a)"/>
 <path d="m24.205 15.641c-.187-.162-.427-.252-.675-.252h-7.103v18.954l15.146-.001v-11.828c0-.298-.129-.582-.354-.777-1.304-1.133-5.822-5.059-7.014-6.096zm-6.601.778v16.885h12.913v-9.986c0-.573-.464-1.037-1.036-1.037h-5.377v-4.757c0-.568-.457-1.03-1.023-1.037-1.831-.023-5.477-.068-5.477-.068z" fill="#aa6c0c"/>
</svg>
